<?xml version="1.0" encoding="UTF-8" standalone="no"?>
<!DOCTYPE svg PUBLIC "-//W3C//DTD SVG 1.1//EN" "http://www.w3.org/Graphics/SVG/1.1/DTD/svg11.dtd">
<svg width="100%" height="100%" viewBox="0 0 1920 580" version="1.1" xmlns="http://www.w3.org/2000/svg" xmlns:xlink="http://www.w3.org/1999/xlink" xml:space="preserve" xmlns:serif="http://www.serif.com/" style="fill-rule:evenodd;clip-rule:evenodd;stroke-miterlimit:10;">
    <g id="Mesa-de-trabajo1" serif:id="Mesa de trabajo1" transform="matrix(0.999185,0,0,1.00357,0.776724,-2.83437)">
        <rect x="-0.777" y="2.824" width="1921.57" height="577.937" style="fill:none;"/>
        <clipPath id="_clip1">
            <rect x="-0.777" y="2.824" width="1921.57" height="577.937"/>
        </clipPath>
        <g clip-path="url(#_clip1)">
            <g transform="matrix(1.00082,0,0,0.996442,0.223458,-2896.21)">
                <rect x="0" y="2907" width="1919.5" height="584.5" style="fill:rgb(0,149,219);"/>
            </g>
            <g transform="matrix(1.00082,0,0,0.996442,398.001,131.906)">
                <path d="M0,226.644L250.606,226.644L250.606,0L0,0C-5.189,0 -9.395,4.207 -9.395,9.396L-9.395,217.248C-9.395,222.437 -5.189,226.644 0,226.644Z" style="fill:none;fill-rule:nonzero;stroke:white;stroke-width:1px;"/>
            </g>
            <g transform="matrix(1.00082,0,0,0.996442,480.287,177.138)">
                <path d="M0,68.785C-6.086,68.785 -12.074,67.166 -17.317,64.102C-17.879,63.774 -18.514,63.605 -19.153,63.605C-19.476,63.605 -19.8,63.648 -20.116,63.735L-31.51,66.861L-27.541,58.119C-27.001,56.931 -27.14,55.544 -27.904,54.486C-32.149,48.601 -34.393,41.654 -34.393,34.392C-34.393,15.429 -18.964,0.001 0,0.001C18.964,0.001 34.392,15.429 34.392,34.392C34.392,53.356 18.964,68.785 0,68.785M0,-7.277C-22.978,-7.277 -41.67,11.416 -41.67,34.392C-41.67,42.475 -39.375,50.238 -35.015,56.976L-41.345,70.92C-41.928,72.205 -41.716,73.712 -40.8,74.785C-40.098,75.608 -39.081,76.062 -38.031,76.062C-37.71,76.062 -37.387,76.02 -37.068,75.933L-19.627,71.147C-13.606,74.367 -6.853,76.062 0,76.062C22.976,76.062 41.669,57.37 41.669,34.392C41.669,11.416 22.976,-7.277 0,-7.277" style="fill:white;"/>
            </g>
            <g transform="matrix(1.00082,0,0,0.996442,496.321,205.337)">
                <path d="M0,12.333C-1.746,11.289 -4.017,10.124 -6.072,10.965C-7.649,11.61 -8.656,14.079 -9.678,15.341C-10.203,15.987 -10.828,16.088 -11.634,15.765C-17.554,13.406 -22.091,9.453 -25.357,4.008C-25.911,3.161 -25.812,2.494 -25.145,1.709C-24.157,0.548 -22.918,-0.771 -22.652,-2.338C-22.385,-3.904 -23.119,-5.735 -23.767,-7.13C-24.594,-8.911 -25.519,-11.452 -27.303,-12.461C-28.945,-13.387 -31.105,-12.868 -32.567,-11.678C-35.09,-9.623 -36.308,-6.404 -36.271,-3.213C-36.261,-2.306 -36.149,-1.401 -35.938,-0.526C-35.429,1.578 -34.456,3.543 -33.361,5.412C-32.536,6.821 -31.639,8.188 -30.67,9.503C-27.504,13.805 -23.564,17.544 -19.003,20.337C-16.724,21.733 -14.269,22.957 -11.726,23.798C-8.875,24.739 -6.334,25.72 -3.256,25.136C-0.033,24.522 3.145,22.528 4.424,19.422C4.803,18.502 4.993,17.478 4.781,16.507C4.343,14.498 1.624,13.305 0,12.333" style="fill:white;"/>
            </g>
            <g transform="matrix(1.00082,0,0,0.996442,564.779,211.081)">
                <path d="M0,0.659L0,41.159C0,41.742 0.472,42.215 1.055,42.215L16.095,42.215C16.677,42.215 17.149,41.742 17.149,41.159L17.149,0L28.053,0C28.602,0 29.058,-0.42 29.104,-0.967L30.153,-13.368C30.205,-13.983 29.719,-14.512 29.102,-14.512L17.149,-14.512L17.149,-23.31C17.149,-25.372 18.821,-27.044 20.883,-27.044L29.287,-27.044C29.87,-27.044 30.342,-27.517 30.342,-28.099L30.342,-40.5C30.342,-41.083 29.87,-41.556 29.287,-41.556L15.087,-41.556C6.755,-41.556 0,-34.801 0,-26.468L0,-14.512L-7.52,-14.512C-8.103,-14.512 -8.575,-14.039 -8.575,-13.457L-8.575,-1.055C-8.575,-0.473 -8.103,0 -7.52,0L0,0L0,0.659Z" style="fill:white;"/>
            </g>
            <g transform="matrix(-1.00082,0,0,0.996442,1483.15,-2989.02)">
                <rect x="642.554" y="3132.07" width="196.606" height="227.504" style="fill:rgb(117,1,104);"/>
            </g>
            <g transform="matrix(1.00082,0,0,0.996442,1524.17,131.478)">
                <path d="M0,227.505L-683.546,227.505L-683.546,0L0,0C5.101,0 9.236,4.135 9.236,9.236L9.236,218.269C9.236,223.369 5.101,227.505 0,227.505" style="fill:rgb(255,122,0);fill-rule:nonzero;"/>
            </g>
            <g transform="matrix(1.00082,0,0,0.996442,768.558,185.136)">
                <path d="M0,28.299C0,36.432 -6.593,43.024 -14.726,43.024L-43.023,43.024C-51.156,43.024 -57.749,36.432 -57.749,28.299L-57.749,-0.001C-57.749,-8.133 -51.156,-14.725 -43.023,-14.725L-14.726,-14.725C-6.593,-14.725 0,-8.133 0,-0.001L0,28.299ZM-14.726,-21.44L-43.023,-21.44C-54.865,-21.44 -64.464,-11.842 -64.464,-0.001L-64.464,28.299C-64.464,40.141 -54.865,49.739 -43.023,49.739L-14.726,49.739C-2.884,49.739 6.715,40.141 6.715,28.299L6.715,-0.001C6.715,-11.842 -2.884,-21.44 -14.726,-21.44" style="fill:white;fill-rule:nonzero;"/>
            </g>
            <g transform="matrix(-1.00082,0,0,0.996442,758.398,185.169)">
                <path d="M-0.002,-8.369C2.31,-8.369 4.184,-6.495 4.184,-4.184C4.184,-1.873 2.31,0 -0.002,0C-2.313,0 -4.186,-1.873 -4.186,-4.184C-4.186,-6.495 -2.313,-8.369 -0.002,-8.369" style="fill:white;fill-rule:nonzero;"/>
            </g>
            <g transform="matrix(1.00082,0,0,0.996442,739.781,188.472)">
                <path d="M0,22.52C-6.209,22.52 -11.261,17.469 -11.261,11.26C-11.261,5.051 -6.209,0 0,0C6.209,0 11.259,5.051 11.259,11.26C11.259,17.469 6.209,22.52 0,22.52M0,-6.318C-9.693,-6.318 -17.579,1.568 -17.579,11.26C-17.579,20.953 -9.693,28.838 0,28.838C9.692,28.838 17.578,20.953 17.578,11.26C17.578,1.568 9.692,-6.318 0,-6.318" style="fill:white;fill-rule:nonzero;"/>
            </g>
            <g transform="matrix(1.00082,0,0,0.996442,640.385,260.794)">
                <path d="M0,-28.905L6.28,-28.905L6.28,-17.705L17.365,-17.705L17.365,-11.37L6.28,-11.37L6.28,0L0,0L0,-11.37L-11.539,-11.37L-11.539,-17.705L0,-17.705L0,-28.905Z" style="fill:white;fill-rule:nonzero;"/>
            </g>
            <g transform="matrix(1.00082,0,0,0.996442,837.152,260.794)">
                <path d="M0,-28.905L6.28,-28.905L6.28,-17.705L17.365,-17.705L17.365,-11.37L6.28,-11.37L6.28,0L0,0L0,-11.37L-11.538,-11.37L-11.538,-17.705L0,-17.705L0,-28.905Z" style="fill:white;fill-rule:nonzero;"/>
            </g>
            <g transform="matrix(1.00082,0,0,0.996442,1287.95,260.794)">
                <path d="M0,-28.905L6.279,-28.905L6.279,-17.705L17.364,-17.705L17.364,-11.37L6.279,-11.37L6.279,0L0,0L0,-11.37L-11.539,-11.37L-11.539,-17.705L0,-17.705L0,-28.905Z" style="fill:white;fill-rule:nonzero;"/>
            </g>
            <g transform="matrix(1.00082,0,0,0.996442,0.223458,-708.523)">
                <text x="389.674px" y="1190.21px" style="font-family:'UniSansBook', 'Uni Sans';font-size:71.611px;fill:white;">En esta Na<tspan x="703.614px " y="1190.21px ">v</tspan>idad</text>
                <text x="874.619px" y="1190.21px" style="font-family:'UniSansBold', 'Uni Sans';font-weight:700;font-size:71.611px;fill:white;">CNT<tspan x="1005.31px 1019.06px " y="1190.21px 1190.21px "> t</tspan>e r<tspan x="1114.3px " y="1190.21px ">e</tspan>gala</text>
                <text x="1289.39px" y="1190.21px" style="font-family:'UniSansBold', 'Uni Sans';font-weight:700;font-size:105.927px;fill:white;">13 GB</text>
            </g>
            <g transform="matrix(1.00082,0,0,0.996442,0.223458,-708.523)">
                <text x="445.278px" y="1019.75px" style="font-family:'UniSansRegular', 'Uni Sans';font-size:51.828px;fill:white;">Libr<tspan x="524.833px 550.125px 572.256px " y="1019.75px 1019.75px 1019.75px ">es*</tspan></text>
            </g>
            <g transform="matrix(1.00082,0,0,0.996442,0.223458,-708.523)">
                <text x="693.986px" y="1009.6px" style="font-family:'UniSansRegular', 'Uni Sans';font-size:42.013px;fill:white;">Bono</text>
                <text x="683.567px" y="1048.25px" style="font-family:'UniSansRegular', 'Uni Sans';font-size:42.013px;fill:white;">de MB</text>
            </g>
            <g transform="matrix(1.00082,0,0,0.996442,0.223458,-708.523)">
                <text x="909.466px" y="950.278px" style="font-family:'UniSansBold', 'Uni Sans';font-weight:700;font-size:67.9px;fill:white;">min <tspan x="1131.23px " y="950.278px ">s</tspan>ms</text>
                <text x="1104.68px" y="997.663px" style="font-family:'UniSansRegular', 'Uni Sans';font-size:41.435px;fill:white;">Ilimitados</text>
            </g>
            <g transform="matrix(1.00082,0,0,0.996442,0.223458,-708.523)">
                <text x="880.02px" y="997.659px" style="font-family:'UniSansRegular', 'Uni Sans';font-size:41.435px;fill:white;">Ilimitados</text>
            </g>
            <g transform="matrix(1.00082,0,0,0.996442,0.223458,-708.523)">
                <text x="1358.09px" y="956.101px" style="font-family:'UniSansBold', 'Uni Sans';font-weight:700;font-size:67.9px;fill:white;">50</text>
                <text x="1317.08px" y="1003.39px" style="font-family:'UniSansRegular', 'Uni Sans';font-size:51.828px;fill:white;">min LDI</text>
            </g>
            <g transform="matrix(1.00082,0,0,0.996442,0.223458,-708.523)">
                <text x="913.778px" y="1022px" style="font-family:'UniSansRegular', 'Uni Sans';font-size:21.762px;fill:white;">a todas las</text>
                <text x="911.232px" y="1041.59px" style="font-family:'UniSansRegular', 'Uni Sans';font-size:21.762px;fill:white;">operador<tspan x="989.683px " y="1041.59px ">a</tspan>s</text>
            </g>
            <g transform="matrix(1.00082,0,0,0.996442,1073.65,260.794)">
                <path d="M0,-28.905L6.28,-28.905L6.28,-17.705L17.365,-17.705L17.365,-11.37L6.28,-11.37L6.28,0L0,0L0,-11.37L-11.538,-11.37L-11.538,-17.705L0,-17.705L0,-28.905Z" style="fill:white;fill-rule:nonzero;"/>
            </g>
        </g>
    </g>
</svg>
