<?xml version="1.0" encoding="UTF-8" standalone="no"?>
<!DOCTYPE svg PUBLIC "-//W3C//DTD SVG 1.1//EN" "http://www.w3.org/Graphics/SVG/1.1/DTD/svg11.dtd">
<svg width="100%" height="100%" viewBox="0 0 1920 1547" version="1.1" xmlns="http://www.w3.org/2000/svg" xmlns:xlink="http://www.w3.org/1999/xlink" xml:space="preserve" xmlns:serif="http://www.serif.com/" style="fill-rule:evenodd;clip-rule:evenodd;stroke-miterlimit:10;">
    <g id="Mesa-de-trabajo1" serif:id="Mesa de trabajo1" transform="matrix(0.999185,0,0,2.67645,0.776724,-7.55906)">
        <rect x="-0.777" y="2.824" width="1921.57" height="577.937" style="fill:none;"/>
        <clipPath id="_clip1">
            <rect x="-0.777" y="2.824" width="1921.57" height="577.937"/>
        </clipPath>
        <g clip-path="url(#_clip1)">
            <g transform="matrix(1.00082,0,0,0.37363,-0.777358,-237.116)">
                <rect x="0" y="0" width="1920" height="3528" style="fill:rgb(117,1,104);"/>
            </g>
            <g>
                <g transform="matrix(1.00082,0,0,0.37363,-0.777358,-478.596)">
                    <text x="845.55px" y="1703.85px" style="font-family:'UniSansSemiBold', 'Uni Sans';font-weight:600;font-size:108.403px;fill:rgb(255,199,0);">27</text>
                    <text x="954.386px" y="1703.85px" style="font-family:'UniSansSemiBold', 'Uni Sans';font-weight:600;font-size:108.403px;fill:rgb(255,199,0);">.</text>
                    <text x="978.076px" y="1677.83px" style="font-family:'UniSansSemiBold', 'Uni Sans';font-weight:600;font-size:71.841px;fill:rgb(255,199,0);">90*</text>
                </g>
                <g transform="matrix(1.00082,0,0,0.37363,-0.777358,-478.596)">
                    <text x="998.831px" y="1703.85px" style="font-family:'UniSansRegular', 'Uni Sans';font-size:18.288px;fill:rgb(255,199,0);">P<tspan x="1009.8px 1015.36px " y="1703.85px 1703.85px ">re</tspan>cio ﬁnal</text>
                </g>
                <g transform="matrix(1.00082,0,0,0.37363,-0.777358,-478.596)">
                    <text x="816.664px" y="1669.24px" style="font-family:'UniSansBold', 'Uni Sans';font-weight:700;font-size:50.632px;fill:rgb(255,199,0);">$</text>
                </g>
                <g transform="matrix(1.00082,0,0,0.37363,-0.777358,-478.596)">
                    <text x="500.246px" y="1896.15px" style="font-family:'UniSansRegular', 'Uni Sans';font-size:35.337px;fill:white;">Libr<tspan x="554.488px 571.733px 586.821px " y="1896.15px 1896.15px 1896.15px ">es*</tspan></text>
                </g>
                <g transform="matrix(1.00082,0,0,0.37363,-0.777358,-478.596)">
                    <text x="502.008px" y="2041.93px" style="font-family:'UniSansRegular', 'Uni Sans';font-size:35.337px;fill:white;">0<tspan x="523.387px 530.949px " y="2041.93px 2041.93px ">.5</tspan>GB</text>
                    <text x="491.388px" y="2142.19px" style="font-family:'UniSansRegular', 'Uni Sans';font-size:61.557px;fill:white;">8GB</text>
                </g>
                <g transform="matrix(1.00082,0,0,0.37363,-0.777358,-478.596)">
                    <text x="469.847px" y="2359.71px" style="font-family:'UniSansBook', 'Uni Sans';font-size:47.285px;fill:white;">30 min</text>
                    <text x="507.533px" y="2409.69px" style="font-family:'UniSansBook', 'Uni Sans';font-size:47.285px;fill:white;">LDI</text>
                    <text x="450.744px" y="2495.42px" style="font-family:'UniSansBook', 'Uni Sans';font-size:47.285px;fill:white;">100 SMS</text>
                </g>
                <g transform="matrix(1.00082,0,0,0.37363,-0.777358,-478.596)">
                    <text x="410.822px" y="2234.12px" style="font-family:'UniSansBook', 'Uni Sans';font-size:32.784px;fill:white;">200 minutos a todas</text>
                    <text x="452.163px" y="2267.85px" style="font-family:'UniSansBook', 'Uni Sans';font-size:32.784px;fill:white;">las oper<tspan x="556.317px " y="2267.85px ">a</tspan>dor<tspan x="615.262px " y="2267.85px ">a</tspan>s</text>
                </g>
                <g transform="matrix(1.00082,0,0,0.37363,-0.777358,-478.596)">
                    <text x="878.232px" y="2357.63px" style="font-family:'UniSansBook', 'Uni Sans';font-size:47.285px;fill:white;">50 min</text>
                    <text x="915.918px" y="2407.61px" style="font-family:'UniSansBook', 'Uni Sans';font-size:47.285px;fill:white;">LDI</text>
                    <text x="807.069px" y="2491.72px" style="font-family:'UniSansBook', 'Uni Sans';font-size:47.285px;fill:white;">SMS Ilimitados</text>
                </g>
                <g transform="matrix(1.00082,0,0,0.37363,-0.777358,-478.596)">
                    <text x="826.451px" y="2235.95px" style="font-family:'UniSansBook', 'Uni Sans';font-size:32.784px;fill:white;">Minutos ilimitados a</text>
                    <text x="820.845px" y="2269.69px" style="font-family:'UniSansBook', 'Uni Sans';font-size:32.784px;fill:white;">todas las oper<tspan x="1004.4px " y="2269.69px ">a</tspan>dor<tspan x="1063.35px " y="2269.69px ">a</tspan>s</text>
                </g>
                <g transform="matrix(1.00082,0,0,0.37363,-0.777358,-478.596)">
                    <text x="908.631px" y="1896.15px" style="font-family:'UniSansRegular', 'Uni Sans';font-size:35.337px;fill:white;">Libr<tspan x="962.874px 980.118px 995.207px " y="1896.15px 1896.15px 1896.15px ">es*</tspan></text>
                </g>
                <g transform="matrix(1.00082,0,0,0.37363,-0.777358,-478.596)">
                    <text x="929.492px" y="2041.93px" style="font-family:'UniSansRegular', 'Uni Sans';font-size:35.337px;fill:white;">1GB</text>
                    <text x="890.935px" y="2142.19px" style="font-family:'UniSansRegular', 'Uni Sans';font-size:61.557px;fill:white;">13GB</text>
                </g>
                <g transform="matrix(1.00082,0,0,0.37363,-0.777358,-478.596)">
                    <text x="1291.9px" y="2357.63px" style="font-family:'UniSansBook', 'Uni Sans';font-size:47.285px;fill:white;">50 min</text>
                    <text x="1329.59px" y="2407.61px" style="font-family:'UniSansBook', 'Uni Sans';font-size:47.285px;fill:white;">LDI</text>
                    <text x="1228.11px" y="2495.41px" style="font-family:'UniSansBook', 'Uni Sans';font-size:47.285px;fill:white;">SMS Ilimitados</text>
                </g>
                <g transform="matrix(1.00082,0,0,0.37363,-0.777358,-478.596)">
                    <text x="1240.12px" y="2235.95px" style="font-family:'UniSansBook', 'Uni Sans';font-size:32.784px;fill:white;">Minutos ilimitados a</text>
                    <text x="1234.52px" y="2269.69px" style="font-family:'UniSansBook', 'Uni Sans';font-size:32.784px;fill:white;">todas las oper<tspan x="1418.08px " y="2269.69px ">a</tspan>dor<tspan x="1477.02px " y="2269.69px ">a</tspan>s</text>
                </g>
                <g transform="matrix(1.00082,0,0,0.37363,-0.777358,-478.596)">
                    <text x="1322.3px" y="1896.15px" style="font-family:'UniSansRegular', 'Uni Sans';font-size:35.337px;fill:white;">Libr<tspan x="1376.55px 1393.79px 1408.88px " y="1896.15px 1896.15px 1896.15px ">es*</tspan></text>
                </g>
                <g transform="matrix(1.00082,0,0,0.37363,-0.777358,-478.596)">
                    <text x="1343.16px" y="2041.93px" style="font-family:'UniSansRegular', 'Uni Sans';font-size:35.337px;fill:white;">1GB</text>
                    <text x="1304.61px" y="2142.19px" style="font-family:'UniSansRegular', 'Uni Sans';font-size:61.557px;fill:white;">20GB</text>
                </g>
                <g transform="matrix(1.00082,0,0,0.37363,523.354,195.288)">
                    <path d="M0,46.898C-4.149,46.898 -8.232,45.794 -11.808,43.706C-12.19,43.482 -12.623,43.367 -13.059,43.367C-13.279,43.367 -13.5,43.396 -13.715,43.455L-21.484,45.586L-18.778,39.626C-18.41,38.815 -18.504,37.87 -19.025,37.149C-21.92,33.136 -23.45,28.4 -23.45,23.449C-23.45,10.519 -12.93,0 0,0C12.93,0 23.449,10.519 23.449,23.449C23.449,36.378 12.93,46.898 0,46.898M0,-4.962C-15.667,-4.962 -28.412,7.783 -28.412,23.449C-28.412,28.96 -26.847,34.252 -23.874,38.846L-28.189,48.353C-28.587,49.23 -28.443,50.256 -27.818,50.989C-27.34,51.55 -26.646,51.86 -25.931,51.86C-25.712,51.86 -25.492,51.832 -25.274,51.771L-13.382,48.509C-9.277,50.705 -4.673,51.86 0,51.86C15.666,51.86 28.411,39.115 28.411,23.449C28.411,7.783 15.666,-4.962 0,-4.962" style="fill:white;"/>
                </g>
                <g transform="matrix(1.00082,0,0,0.37363,534.285,202.496)">
                    <path d="M0,8.41C-1.19,7.698 -2.738,6.903 -4.14,7.476C-5.215,7.917 -5.902,9.6 -6.598,10.46C-6.956,10.901 -7.383,10.97 -7.932,10.749C-11.969,9.141 -15.062,6.446 -17.289,2.733C-17.667,2.156 -17.599,1.701 -17.144,1.166C-16.471,0.374 -15.626,-0.526 -15.444,-1.594C-15.262,-2.661 -15.763,-3.909 -16.205,-4.861C-16.769,-6.075 -17.399,-7.808 -18.616,-8.495C-19.735,-9.127 -21.208,-8.774 -22.205,-7.961C-23.925,-6.561 -24.755,-4.365 -24.73,-2.191C-24.724,-1.571 -24.647,-0.955 -24.503,-0.359C-24.156,1.076 -23.493,2.417 -22.746,3.691C-22.184,4.651 -21.572,5.583 -20.912,6.479C-18.753,9.413 -16.066,11.962 -12.957,13.867C-11.402,14.818 -9.729,15.653 -7.995,16.226C-6.051,16.868 -4.319,17.537 -2.22,17.138C-0.022,16.721 2.145,15.361 3.017,13.243C3.275,12.615 3.404,11.917 3.26,11.255C2.961,9.886 1.107,9.072 0,8.41" style="fill:white;"/>
                </g>
                <g transform="matrix(1.00082,0,0,0.37363,580.962,203.965)">
                    <path d="M0,0.449L0,28.063C0,28.461 0.322,28.782 0.719,28.782L10.974,28.782C11.371,28.782 11.693,28.461 11.693,28.063L11.693,0L19.127,0C19.501,0 19.812,-0.286 19.844,-0.659L20.559,-9.114C20.595,-9.534 20.263,-9.895 19.842,-9.895L11.693,-9.895L11.693,-15.894C11.693,-17.3 12.833,-18.44 14.239,-18.44L19.968,-18.44C20.365,-18.44 20.687,-18.762 20.687,-19.158L20.687,-27.614C20.687,-28.012 20.365,-28.333 19.968,-28.333L10.287,-28.333C4.605,-28.333 0,-23.728 0,-18.047L0,-9.895L-5.127,-9.895C-5.525,-9.895 -5.847,-9.572 -5.847,-9.175L-5.847,-0.72C-5.847,-0.322 -5.525,0 -5.127,0L0,0L0,0.449Z" style="fill:white;"/>
                </g>
                <g transform="matrix(1.00082,0,0,0.37363,570.79,255.161)">
                    <path d="M0,21.8C0,28.065 -5.078,33.143 -11.343,33.143L-33.142,33.143C-39.407,33.143 -44.485,28.065 -44.485,21.8L-44.485,-0.001C-44.485,-6.265 -39.407,-11.344 -33.142,-11.344L-11.343,-11.344C-5.078,-11.344 0,-6.265 0,-0.001L0,21.8ZM-11.343,-16.515L-33.142,-16.515C-42.263,-16.515 -49.658,-9.122 -49.658,-0.001L-49.658,21.8C-49.658,30.921 -42.263,38.315 -33.142,38.315L-11.343,38.315C-2.221,38.315 5.173,30.921 5.173,21.8L5.173,-0.001C5.173,-9.122 -2.221,-16.515 -11.343,-16.515" style="fill:white;fill-rule:nonzero;"/>
                </g>
                <g transform="matrix(-1.00082,0,0,0.37363,562.965,255.171)">
                    <path d="M0,-6.447C1.78,-6.447 3.224,-5.004 3.224,-3.223C3.224,-1.443 1.78,0 0,0C-1.78,0 -3.224,-1.443 -3.224,-3.223C-3.224,-5.004 -1.78,-6.447 0,-6.447" style="fill:white;fill-rule:nonzero;"/>
                </g>
                <g transform="matrix(1.00082,0,0,0.37363,548.623,256.125)">
                    <path d="M0,17.348C-4.783,17.348 -8.674,13.457 -8.674,8.674C-8.674,3.892 -4.783,0 0,0C4.783,0 8.673,3.892 8.673,8.674C8.673,13.457 4.783,17.348 0,17.348M0,-4.867C-7.467,-4.867 -13.541,1.208 -13.541,8.674C-13.541,16.141 -7.467,22.215 0,22.215C7.466,22.215 13.541,16.141 13.541,8.674C13.541,1.208 7.466,-4.867 0,-4.867" style="fill:white;fill-rule:nonzero;"/>
                </g>
                <g transform="matrix(1.00082,0,0,0.37363,676.78,462.748)">
                    <path d="M0,-751.005C22.964,-751.005 41.581,-732.389 41.581,-709.425L41.581,-23.707C41.581,-0.742 22.964,17.874 0,17.874L-256.065,17.874C-279.03,17.874 -297.646,-0.742 -297.646,-23.707L-297.646,-727.298C-297.646,-750.263 -279.03,-768.879 -256.065,-768.879L0,-751.005Z" style="fill:none;fill-rule:nonzero;stroke:white;stroke-width:0.45px;"/>
                </g>
                <g transform="matrix(1.00082,0,0,0.37363,378.711,242.078)">
                    <path d="M0,0L339.227,0" style="fill:none;fill-rule:nonzero;stroke:white;stroke-width:0.45px;"/>
                </g>
                <g transform="matrix(1.00082,0,0,0.37363,379.072,291.004)">
                    <path d="M0,0L339.227,0" style="fill:none;fill-rule:nonzero;stroke:white;stroke-width:0.45px;"/>
                </g>
                <g transform="matrix(1.00082,0,0,0.37363,379.072,336.473)">
                    <path d="M0,0L339.227,0" style="fill:none;fill-rule:nonzero;stroke:white;stroke-width:0.45px;"/>
                </g>
                <g transform="matrix(1.00082,0,0,0.37363,379.072,381.943)">
                    <path d="M0,0L339.227,0" style="fill:none;fill-rule:nonzero;stroke:white;stroke-width:0.45px;"/>
                </g>
                <g transform="matrix(1.00082,0,0,0.37363,379.072,427.412)">
                    <path d="M0,0L339.227,0" style="fill:none;fill-rule:nonzero;stroke:white;stroke-width:0.45px;"/>
                </g>
                <g transform="matrix(1.00082,0,0,0.37363,932.07,195.288)">
                    <path d="M0,46.898C-4.149,46.898 -8.232,45.794 -11.807,43.706C-12.19,43.482 -12.623,43.367 -13.058,43.367C-13.278,43.367 -13.499,43.396 -13.714,43.455L-21.483,45.586L-18.778,39.626C-18.41,38.815 -18.504,37.87 -19.025,37.149C-21.919,33.136 -23.449,28.4 -23.449,23.449C-23.449,10.519 -12.93,0 0,0C12.93,0 23.45,10.519 23.45,23.449C23.45,36.378 12.93,46.898 0,46.898M0,-4.962C-15.666,-4.962 -28.411,7.783 -28.411,23.449C-28.411,28.96 -26.846,34.252 -23.874,38.846L-28.189,48.353C-28.587,49.23 -28.442,50.256 -27.817,50.989C-27.339,51.55 -26.646,51.86 -25.93,51.86C-25.711,51.86 -25.491,51.832 -25.273,51.771L-13.381,48.509C-9.276,50.705 -4.672,51.86 0,51.86C15.667,51.86 28.412,39.115 28.412,23.449C28.412,7.783 15.667,-4.962 0,-4.962" style="fill:white;"/>
                </g>
                <g transform="matrix(1.00082,0,0,0.37363,943.002,202.496)">
                    <path d="M0,8.41C-1.19,7.698 -2.738,6.903 -4.14,7.476C-5.215,7.917 -5.902,9.6 -6.598,10.46C-6.956,10.901 -7.382,10.97 -7.932,10.749C-11.968,9.141 -15.062,6.446 -17.29,2.733C-17.667,2.156 -17.599,1.701 -17.144,1.166C-16.471,0.374 -15.626,-0.526 -15.444,-1.594C-15.262,-2.661 -15.763,-3.909 -16.205,-4.861C-16.768,-6.075 -17.399,-7.808 -18.616,-8.495C-19.735,-9.127 -21.208,-8.774 -22.205,-7.961C-23.925,-6.561 -24.755,-4.365 -24.73,-2.191C-24.723,-1.571 -24.647,-0.955 -24.503,-0.359C-24.156,1.076 -23.493,2.417 -22.746,3.691C-22.183,4.651 -21.571,5.583 -20.912,6.479C-18.752,9.413 -16.066,11.962 -12.956,13.867C-11.402,14.818 -9.728,15.653 -7.995,16.226C-6.051,16.868 -4.319,17.537 -2.22,17.138C-0.022,16.721 2.145,15.361 3.017,13.243C3.275,12.615 3.404,11.917 3.26,11.255C2.961,9.886 1.108,9.072 0,8.41" style="fill:white;"/>
                </g>
                <g transform="matrix(1.00082,0,0,0.37363,989.679,203.965)">
                    <path d="M0,0.449L0,28.063C0,28.461 0.322,28.782 0.72,28.782L10.974,28.782C11.371,28.782 11.693,28.461 11.693,28.063L11.693,0L19.127,0C19.501,0 19.812,-0.286 19.844,-0.659L20.559,-9.114C20.595,-9.534 20.263,-9.895 19.842,-9.895L11.693,-9.895L11.693,-15.894C11.693,-17.3 12.833,-18.44 14.239,-18.44L19.969,-18.44C20.365,-18.44 20.687,-18.762 20.687,-19.158L20.687,-27.614C20.687,-28.012 20.365,-28.333 19.969,-28.333L10.287,-28.333C4.605,-28.333 0,-23.728 0,-18.047L0,-9.895L-5.127,-9.895C-5.524,-9.895 -5.847,-9.572 -5.847,-9.175L-5.847,-0.72C-5.847,-0.322 -5.524,0 -5.127,0L0,0L0,0.449Z" style="fill:white;"/>
                </g>
                <g transform="matrix(1.00082,0,0,0.37363,979.621,255.161)">
                    <path d="M0,21.8C0,28.065 -5.079,33.143 -11.344,33.143L-33.142,33.143C-39.407,33.143 -44.486,28.065 -44.486,21.8L-44.486,-0.001C-44.486,-6.265 -39.407,-11.344 -33.142,-11.344L-11.344,-11.344C-5.079,-11.344 0,-6.265 0,-0.001L0,21.8ZM-11.344,-16.515L-33.142,-16.515C-42.264,-16.515 -49.659,-9.122 -49.659,-0.001L-49.659,21.8C-49.659,30.921 -42.264,38.315 -33.142,38.315L-11.344,38.315C-2.222,38.315 5.173,30.921 5.173,21.8L5.173,-0.001C5.173,-9.122 -2.222,-16.515 -11.344,-16.515" style="fill:white;fill-rule:nonzero;"/>
                </g>
                <g transform="matrix(-1.00082,0,0,0.37363,971.795,255.171)">
                    <path d="M0,-6.447C1.78,-6.447 3.224,-5.004 3.224,-3.223C3.224,-1.443 1.78,0 0,0C-1.78,0 -3.224,-1.443 -3.224,-3.223C-3.224,-5.004 -1.78,-6.447 0,-6.447" style="fill:white;fill-rule:nonzero;"/>
                </g>
                <g transform="matrix(1.00082,0,0,0.37363,957.453,256.125)">
                    <path d="M0,17.348C-4.783,17.348 -8.674,13.457 -8.674,8.674C-8.674,3.892 -4.783,0 0,0C4.783,0 8.673,3.892 8.673,8.674C8.673,13.457 4.783,17.348 0,17.348M0,-4.867C-7.466,-4.867 -13.541,1.208 -13.541,8.674C-13.541,16.141 -7.466,22.215 0,22.215C7.466,22.215 13.541,16.141 13.541,8.674C13.541,1.208 7.466,-4.867 0,-4.867" style="fill:white;fill-rule:nonzero;"/>
                </g>
                <g transform="matrix(1.00082,0,0,0.37363,1085.5,462.748)">
                    <path d="M0,-751.005C22.965,-751.005 41.581,-732.389 41.581,-709.425L41.581,-23.707C41.581,-0.742 22.965,17.874 0,17.874L-256.064,17.874C-279.029,17.874 -297.646,-0.742 -297.646,-23.707L-297.646,-727.298C-297.646,-750.263 -279.029,-768.879 -256.064,-768.879L0,-751.005Z" style="fill:none;fill-rule:nonzero;stroke:white;stroke-width:0.45px;"/>
                </g>
                <g transform="matrix(1.00082,0,0,0.37363,787.427,242.078)">
                    <path d="M0,0L339.227,0" style="fill:none;fill-rule:nonzero;stroke:white;stroke-width:0.45px;"/>
                </g>
                <g transform="matrix(1.00082,0,0,0.37363,787.788,291.004)">
                    <path d="M0,0L339.227,0" style="fill:none;fill-rule:nonzero;stroke:white;stroke-width:0.45px;"/>
                </g>
                <g transform="matrix(1.00082,0,0,0.37363,787.788,336.473)">
                    <path d="M0,0L339.227,0" style="fill:none;fill-rule:nonzero;stroke:white;stroke-width:0.45px;"/>
                </g>
                <g transform="matrix(1.00082,0,0,0.37363,787.788,381.943)">
                    <path d="M0,0L339.227,0" style="fill:none;fill-rule:nonzero;stroke:white;stroke-width:0.45px;"/>
                </g>
                <g transform="matrix(1.00082,0,0,0.37363,787.788,427.412)">
                    <path d="M0,0L339.227,0" style="fill:none;fill-rule:nonzero;stroke:white;stroke-width:0.45px;"/>
                </g>
                <g transform="matrix(1.00082,0,0,0.37363,1346.08,195.288)">
                    <path d="M0,46.898C-4.148,46.898 -8.231,45.794 -11.807,43.706C-12.189,43.482 -12.622,43.367 -13.059,43.367C-13.278,43.367 -13.499,43.396 -13.715,43.455L-21.483,45.586L-18.777,39.626C-18.409,38.815 -18.504,37.87 -19.024,37.149C-21.919,33.136 -23.449,28.4 -23.449,23.449C-23.449,10.519 -12.93,0 0,0C12.931,0 23.449,10.519 23.449,23.449C23.449,36.378 12.931,46.898 0,46.898M0,-4.962C-15.666,-4.962 -28.411,7.783 -28.411,23.449C-28.411,28.96 -26.847,34.252 -23.873,38.846L-28.189,48.353C-28.587,49.23 -28.442,50.256 -27.817,50.989C-27.339,51.55 -26.646,51.86 -25.93,51.86C-25.711,51.86 -25.491,51.832 -25.273,51.771L-13.382,48.509C-9.276,50.705 -4.672,51.86 0,51.86C15.666,51.86 28.412,39.115 28.412,23.449C28.412,7.783 15.666,-4.962 0,-4.962" style="fill:white;"/>
                </g>
                <g transform="matrix(1.00082,0,0,0.37363,1357.01,202.496)">
                    <path d="M0,8.41C-1.189,7.698 -2.737,6.903 -4.14,7.476C-5.215,7.917 -5.901,9.6 -6.598,10.46C-6.955,10.901 -7.382,10.97 -7.932,10.749C-11.968,9.141 -15.062,6.446 -17.289,2.733C-17.666,2.156 -17.599,1.701 -17.144,1.166C-16.471,0.374 -15.626,-0.526 -15.443,-1.594C-15.262,-2.661 -15.762,-3.909 -16.204,-4.861C-16.768,-6.075 -17.398,-7.808 -18.615,-8.495C-19.734,-9.127 -21.208,-8.774 -22.204,-7.961C-23.925,-6.561 -24.755,-4.365 -24.729,-2.191C-24.723,-1.571 -24.646,-0.955 -24.502,-0.359C-24.155,1.076 -23.492,2.417 -22.745,3.691C-22.183,4.651 -21.571,5.583 -20.911,6.479C-18.752,9.413 -16.065,11.962 -12.956,13.867C-11.401,14.818 -9.728,15.653 -7.994,16.226C-6.05,16.868 -4.318,17.537 -2.219,17.138C-0.021,16.721 2.146,15.361 3.018,13.243C3.275,12.615 3.405,11.917 3.261,11.255C2.962,9.886 1.108,9.072 0,8.41" style="fill:white;"/>
                </g>
                <g transform="matrix(1.00082,0,0,0.37363,1403.69,203.965)">
                    <path d="M0,0.449L0,28.063C0,28.461 0.322,28.782 0.72,28.782L10.974,28.782C11.371,28.782 11.692,28.461 11.692,28.063L11.692,0L19.127,0C19.501,0 19.812,-0.286 19.844,-0.659L20.559,-9.114C20.595,-9.534 20.264,-9.895 19.842,-9.895L11.692,-9.895L11.692,-15.894C11.692,-17.3 12.833,-18.44 14.239,-18.44L19.969,-18.44C20.366,-18.44 20.687,-18.762 20.687,-19.158L20.687,-27.614C20.687,-28.012 20.366,-28.333 19.969,-28.333L10.287,-28.333C4.605,-28.333 0,-23.728 0,-18.047L0,-9.895L-5.127,-9.895C-5.524,-9.895 -5.847,-9.572 -5.847,-9.175L-5.847,-0.72C-5.847,-0.322 -5.524,0 -5.127,0L0,0L0,0.449Z" style="fill:white;"/>
                </g>
                <g transform="matrix(1.00082,0,0,0.37363,1393.63,255.161)">
                    <path d="M0,21.8C0,28.065 -5.079,33.143 -11.344,33.143L-33.143,33.143C-39.407,33.143 -44.486,28.065 -44.486,21.8L-44.486,-0.001C-44.486,-6.265 -39.407,-11.344 -33.143,-11.344L-11.344,-11.344C-5.079,-11.344 0,-6.265 0,-0.001L0,21.8ZM-11.344,-16.515L-33.143,-16.515C-42.264,-16.515 -49.658,-9.122 -49.658,-0.001L-49.658,21.8C-49.658,30.921 -42.264,38.315 -33.143,38.315L-11.344,38.315C-2.222,38.315 5.173,30.921 5.173,21.8L5.173,-0.001C5.173,-9.122 -2.222,-16.515 -11.344,-16.515" style="fill:white;fill-rule:nonzero;"/>
                </g>
                <g transform="matrix(-1.00082,0,0,0.37363,1385.8,255.171)">
                    <path d="M-0.002,-6.447C1.779,-6.447 3.223,-5.004 3.223,-3.223C3.223,-1.443 1.779,0 -0.002,0C-1.781,0 -3.225,-1.443 -3.225,-3.223C-3.225,-5.004 -1.781,-6.447 -0.002,-6.447" style="fill:white;fill-rule:nonzero;"/>
                </g>
                <g transform="matrix(1.00082,0,0,0.37363,1371.46,256.125)">
                    <path d="M0,17.348C-4.783,17.348 -8.675,13.457 -8.675,8.674C-8.675,3.892 -4.783,0 0,0C4.783,0 8.673,3.892 8.673,8.674C8.673,13.457 4.783,17.348 0,17.348M0,-4.867C-7.467,-4.867 -13.541,1.208 -13.541,8.674C-13.541,16.141 -7.467,22.215 0,22.215C7.466,22.215 13.54,16.141 13.54,8.674C13.54,1.208 7.466,-4.867 0,-4.867" style="fill:white;fill-rule:nonzero;"/>
                </g>
                <g transform="matrix(1.00082,0,0,0.37363,1499.51,462.748)">
                    <path d="M0,-751.005C22.964,-751.005 41.58,-732.389 41.58,-709.425L41.58,-23.707C41.58,-0.742 22.964,17.874 0,17.874L-256.065,17.874C-279.03,17.874 -297.646,-0.742 -297.646,-23.707L-297.646,-727.298C-297.646,-750.263 -279.03,-768.879 -256.065,-768.879L0,-751.005Z" style="fill:none;fill-rule:nonzero;stroke:white;stroke-width:0.45px;"/>
                </g>
                <g transform="matrix(1.00082,0,0,0.37363,1201.44,242.078)">
                    <path d="M0,0L339.227,0" style="fill:none;fill-rule:nonzero;stroke:white;stroke-width:0.45px;"/>
                </g>
                <g transform="matrix(1.00082,0,0,0.37363,1201.8,291.004)">
                    <path d="M0,0L339.227,0" style="fill:none;fill-rule:nonzero;stroke:white;stroke-width:0.45px;"/>
                </g>
                <g transform="matrix(1.00082,0,0,0.37363,1201.8,336.473)">
                    <path d="M0,0L339.227,0" style="fill:none;fill-rule:nonzero;stroke:white;stroke-width:0.45px;"/>
                </g>
                <g transform="matrix(1.00082,0,0,0.37363,1201.8,381.943)">
                    <path d="M0,0L339.227,0" style="fill:none;fill-rule:nonzero;stroke:white;stroke-width:0.45px;"/>
                </g>
                <g transform="matrix(1.00082,0,0,0.37363,1201.8,427.412)">
                    <path d="M0,0L339.227,0" style="fill:none;fill-rule:nonzero;stroke:white;stroke-width:0.45px;"/>
                </g>
                <g transform="matrix(1.00082,0,0,0.37363,1081.72,88.7242)">
                    <path d="M0,214.946L-248.514,197.073C-276.241,197.073 -298.718,174.595 -298.718,146.868L-298.718,50.205C-298.718,22.477 -276.241,0 -248.514,0L0,0C27.728,0 50.205,22.477 50.205,50.205L50.205,164.742C50.205,192.469 27.728,214.946 0,214.946" style="fill:rgb(243,209,24);fill-rule:nonzero;"/>
                </g>
                <g transform="matrix(1.00082,0,0,0.37363,1495.73,88.7242)">
                    <path d="M0,214.946L-248.514,197.073C-276.241,197.073 -298.719,174.595 -298.719,146.868L-298.719,50.205C-298.719,22.477 -276.241,0 -248.514,0L0,0C27.728,0 50.205,22.477 50.205,50.205L50.205,164.742C50.205,192.469 27.728,214.946 0,214.946" style="fill:rgb(255,122,0);fill-rule:nonzero;"/>
                </g>
                <g transform="matrix(1.00082,0,0,0.37363,673.001,88.7242)">
                    <path d="M0,214.946L-248.514,197.073C-276.241,197.073 -298.719,174.595 -298.719,146.868L-298.719,50.205C-298.719,22.477 -276.241,0 -248.514,0L0,0C27.727,0 50.205,22.477 50.205,50.205L50.205,164.742C50.205,192.469 27.727,214.946 0,214.946" style="fill:rgb(105,196,180);fill-rule:nonzero;"/>
                </g>
                <g transform="matrix(1.00082,0,0,0.37363,1168.71,493.889)">
                    <path d="M0,156.14L-478.351,121.364C-498.492,121.364 -514.82,105.036 -514.82,84.895L-514.82,36.47C-514.82,16.328 -498.492,0 -478.351,0L0,0C20.142,0 36.469,16.328 36.469,36.47L36.469,119.671C36.469,139.812 20.142,156.14 0,156.14" style="fill:rgb(243,209,24);fill-rule:nonzero;"/>
                </g>
                <g transform="matrix(1.00082,0,0,0.37363,-0.777358,-478.596)">
                    <text x="846.162px" y="1636.11px" style="font-family:'UniSansHeavy', 'Uni Sans';font-weight:900;font-size:110.046px;fill:rgb(117,1,104);">27</text>
                    <text x="959.289px" y="1636.11px" style="font-family:'UniSansHeavy', 'Uni Sans';font-weight:900;font-size:110.046px;fill:rgb(117,1,104);">.</text>
                    <text x="983.334px" y="1609.7px" style="font-family:'UniSansBold', 'Uni Sans';font-weight:700;font-size:72.93px;fill:rgb(117,1,104);">90*</text>
                    <text x="851.362px" y="1681.22px" style="font-family:'UniSansRegular', 'Uni Sans';font-size:47.836px;fill:rgb(117,1,104);">P<tspan x="880.064px 894.606px " y="1681.22px 1681.22px ">re</tspan>cio ﬁnal</text>
                </g>
                <g transform="matrix(1.00082,0,0,0.37363,-0.777358,-478.596)">
                    <text x="810.392px" y="1606.24px" style="font-family:'UniSansBold', 'Uni Sans';font-weight:700;font-size:63.026px;fill:rgb(117,1,104);">$</text>
                </g>
                <g transform="matrix(1.00082,0,0,0.37363,-0.777358,-478.596)">
                    <text x="1223.13px" y="1606.24px" style="font-family:'UniSansBold', 'Uni Sans';font-weight:700;font-size:63.026px;fill:white;">$</text>
                    <text x="1255.99px" y="1636.11px" style="font-family:'UniSansHeavy', 'Uni Sans';font-weight:900;font-size:110.046px;fill:white;">35</text>
                    <text x="1374.94px" y="1636.11px" style="font-family:'UniSansHeavy', 'Uni Sans';font-weight:900;font-size:110.046px;fill:white;">.</text>
                    <text x="1396.08px" y="1609.7px" style="font-family:'UniSansBold', 'Uni Sans';font-weight:700;font-size:72.93px;fill:white;">90*</text>
                    <text x="1264.09px" y="1681.22px" style="font-family:'UniSansRegular', 'Uni Sans';font-size:47.836px;fill:white;">P<tspan x="1292.8px 1307.34px " y="1681.22px 1681.22px ">re</tspan>cio ﬁnal</text>
                </g>
                <g transform="matrix(1.00082,0,0,0.37363,-0.777358,-478.596)">
                    <text x="433.047px" y="1636.11px" style="font-family:'UniSansHeavy', 'Uni Sans';font-weight:900;font-size:110.046px;fill:rgb(117,1,104);">22</text>
                    <text x="555.638px" y="1636.11px" style="font-family:'UniSansHeavy', 'Uni Sans';font-weight:900;font-size:110.046px;fill:rgb(117,1,104);">.</text>
                    <text x="574.948px" y="1609.7px" style="font-family:'UniSansBold', 'Uni Sans';font-weight:700;font-size:72.93px;fill:rgb(117,1,104);">90*</text>
                    <text x="442.975px" y="1681.22px" style="font-family:'UniSansRegular', 'Uni Sans';font-size:47.836px;fill:rgb(117,1,104);">P<tspan x="471.676px 486.219px " y="1681.22px 1681.22px ">re</tspan>cio ﬁnal</text>
                </g>
                <g transform="matrix(1.00082,0,0,0.37363,-0.777358,-478.596)">
                    <text x="402.002px" y="1606.24px" style="font-family:'UniSansBold', 'Uni Sans';font-weight:700;font-size:63.026px;fill:rgb(117,1,104);">$</text>
                </g>
                <g transform="matrix(1.00082,0,0,0.37363,-0.777358,-478.596)">
                    <g transform="matrix(0.99999,0,0,1,0.00408549,0)">
                        <text x="394.542px" y="1411.3px" style="font-family:'UniSansRegular', 'Uni Sans';font-size:48.286px;fill:white;">H<tspan x="428.631px 453.16px 478.8px 491.45px " y="1411.3px 1411.3px 1411.3px 1411.3px ">abla</tspan></text>
                    </g>
                    <g transform="matrix(0.99999,0,0,1,0.00545797,0)">
                        <text x="527.085px" y="1411.3px" style="font-family:'UniSansRegular', 'Uni Sans';font-size:48.286px;fill:white;">l<tspan x="539.736px 550.745px 576.384px 592.028px 616.557px 655.861px 680.39px 706.416px 721.095px " y="1411.3px 1411.3px 1411.3px 1411.3px 1411.3px 1411.3px 1411.3px 1411.3px 1411.3px ">ibremente</tspan></text>
                    </g>
                    <g transform="matrix(0.99999,0,0,1,0.00783595,0)">
                        <text x="756.73px" y="1411.3px" style="font-family:'UniSansRegular', 'Uni Sans';font-size:48.286px;fill:white;">y</text>
                    </g>
                    <g transform="matrix(0.99999,0,0,1,0.00822744,0)">
                        <text x="794.537px" y="1411.3px" style="font-family:'UniSansRegular', 'Uni Sans';font-size:48.286px;fill:white;">n<tspan x="820.563px 844.706px 868.365px 892.894px 918.292px " y="1411.3px 1411.3px 1411.3px 1411.3px 1411.3px ">avega</tspan></text>
                    </g>
                    <g transform="matrix(0.99999,0,0,1,0.00987793,0)">
                        <text x="953.927px" y="1411.3px" style="font-family:'UniSansRegular', 'Uni Sans';font-size:48.286px;fill:white;">s<tspan x="976.283px 987.292px " y="1411.3px 1411.3px ">in</tspan></text>
                    </g>
                    <g transform="matrix(0.99999,0,0,1,0.0106079,0)">
                        <text x="1024.42px" y="1411.3px" style="font-family:'UniSansRegular', 'Uni Sans';font-size:48.286px;fill:white;">p<tspan x="1050.11px 1065.76px 1090.62px 1116.26px 1128.91px 1153.44px 1192.75px 1217.28px " y="1411.3px 1411.3px 1411.3px 1411.3px 1411.3px 1411.3px 1411.3px 1411.3px ">roblemas</tspan></text>
                    </g>
                    <g transform="matrix(0.99999,0,0,1,0.0129514,0)">
                        <text x="1250.74px" y="1411.3px" style="font-family:'UniSansRegular', 'Uni Sans';font-size:48.286px;fill:white;">c<tspan x="1274.11px 1298.97px " y="1411.3px 1411.3px ">on</tspan></text>
                    </g>
                    <g transform="matrix(0.99999,0,0,1,0.0138354,0)">
                        <text x="1336.11px" y="1411.3px" style="font-family:'UniSansRegular', 'Uni Sans';font-size:48.286px;fill:white;">e<tspan x="1360.63px " y="1411.3px ">l</tspan></text>
                    </g>
                    <text x="1383.27px" y="1411.3px" style="font-family:'UniSansRegular', 'Uni Sans';font-size:48.286px;fill:white;">n<tspan x="1409.29px 1435.37px 1459.51px 1483.17px " y="1411.3px 1411.3px 1411.3px 1411.3px ">uevo</tspan></text>
                    <g transform="matrix(0.99999,0,0,1,0.00738778,0)">
                        <text x="713.449px" y="1463.97px" style="font-family:'UniSansBold', 'Uni Sans';font-weight:700;font-size:48.286px;fill:rgb(255,199,0);">p<tspan x="739.04px 753.428px 777.763px " y="1463.97px 1463.97px 1463.97px ">lan</tspan></text>
                    </g>
                    <g transform="matrix(0.99999,0,0,1,0.00842726,0)">
                        <text x="813.834px" y="1463.97px" style="font-family:'UniSansBold', 'Uni Sans';font-weight:700;font-size:48.286px;fill:rgb(255,199,0);">q<tspan x="839.425px 865.305px " y="1463.97px 1463.97px ">ue</tspan></text>
                    </g>
                    <g transform="matrix(0.99999,0,0,1,0.00931826,0)">
                        <text x="899.879px" y="1463.97px" style="font-family:'UniSansBold', 'Uni Sans';font-weight:700;font-size:48.286px;fill:rgb(255,199,0);">t<tspan x="916.247px " y="1463.97px ">e</tspan></text>
                    </g>
                    <g transform="matrix(0.99999,0,0,1,0.00984575,0)">
                        <text x="950.82px" y="1463.97px" style="font-family:'UniSansBold', 'Uni Sans';font-weight:700;font-size:48.286px;fill:rgb(255,199,0);">q<tspan x="976.41px 1002.29px 1026.62px 1052.17px " y="1463.97px 1463.97px 1463.97px 1463.97px ">ueda</tspan></text>
                    </g>
                    <g transform="matrix(0.99999,0,0,1,0.0112532,0)">
                        <text x="1086.74px" y="1463.97px" style="font-family:'UniSansBold', 'Uni Sans';font-weight:700;font-size:48.286px;fill:rgb(255,199,0);">b<tspan x="1112.29px " y="1463.97px ">i</tspan></text>
                    </g>
                    <text x="1125.18px" y="1463.97px" style="font-family:'UniSansBold', 'Uni Sans';font-weight:700;font-size:48.286px;fill:rgb(255,199,0);">e<tspan x="1149.51px 1175.34px " y="1463.97px 1463.97px ">n:</tspan></text>
                </g>
                <g transform="matrix(1.00082,0,0,0.37363,-0.777358,-478.596)">
                    <text x="843.92px" y="2658.82px" style="font-family:'UniSansRegular', 'Uni Sans';font-size:50.831px;fill:rgb(117,1,104);">pídelo al</text>
                    <text x="785.261px" y="2714.48px" style="font-family:'UniSansBold', 'Uni Sans';font-weight:700;font-size:50.831px;fill:rgb(117,1,104);">1800 100 100</text>
                </g>
            </g>
        </g>
    </g>
</svg>
