<?xml version="1.0" encoding="UTF-8" standalone="no"?>
<!DOCTYPE svg PUBLIC "-//W3C//DTD SVG 1.1//EN" "http://www.w3.org/Graphics/SVG/1.1/DTD/svg11.dtd">
<svg width="100%" height="100%" viewBox="0 0 1920 197" version="1.1" xmlns="http://www.w3.org/2000/svg" xmlns:xlink="http://www.w3.org/1999/xlink" xml:space="preserve" xmlns:serif="http://www.serif.com/" style="fill-rule:evenodd;clip-rule:evenodd;stroke-linejoin:round;stroke-miterlimit:2;">
    <g id="Mesa-de-trabajo1" serif:id="Mesa de trabajo1" transform="matrix(0.999185,0,0,0.340564,0.776724,-0.961851)">
        <rect x="-0.777" y="2.824" width="1921.57" height="577.937" style="fill:none;"/>
        <clipPath id="_clip1">
            <rect x="-0.777" y="2.824" width="1921.57" height="577.937"/>
        </clipPath>
        <g clip-path="url(#_clip1)">
            <g transform="matrix(1.00082,0,0,2.93631,-0.777358,-1882.84)">
                <rect x="0" y="0" width="1920" height="3528" style="fill:rgb(117,1,104);"/>
            </g>
            <g transform="matrix(1.00082,0,0,2.93631,1817.87,214.339)">
                <path d="M0,33.3C-1.079,32.263 -2.35,32.748 -3.496,33.625C-9.699,38.363 -16.395,42.88 -23.772,45.504C-27.464,46.817 -31.748,47.29 -34.486,43.914C-36.532,41.392 -37.086,37.755 -36.804,34.59C-36.435,30.446 -34.787,26.545 -33.16,22.725L-23.169,0.84L-2.25,-2.191C-2.25,-2.191 -0.254,-2.308 -0.254,-4.545C-0.254,-4.545 -0.456,-8.297 -0.967,-9.396C-0.98,-9.426 -0.988,-9.458 -1.001,-9.488C-1.417,-10.51 -2.502,-10.801 -3.508,-10.762L-18.63,-9.1L-13.352,-20.661C-12.085,-23.797 -14.872,-24.695 -14.872,-24.695C-16.963,-25.462 -22.094,-25.181 -22.094,-25.181C-24.944,-25.187 -25.989,-21.622 -25.989,-21.622C-25.989,-21.622 -28.644,-15.504 -32.559,-7.57L-56.409,-4.951C-57.078,-4.794 -57.557,-4.369 -57.696,-3.673C-57.943,-2.444 -57.22,-1.335 -56.708,-0.286C-56.063,1.035 -55.374,2.297 -54.447,3.443C-53.984,4.015 -53.433,4.512 -52.714,4.714C-51.991,5.006 -51.076,4.805 -50.326,4.777L-38.018,2.992C-38.345,3.594 -38.674,4.196 -39.007,4.796C-39.007,4.796 -48.818,19.005 -57.92,30.403C-59.096,31.876 -67.021,41.801 -67.021,41.801C-66.983,40.569 -66.767,39.446 -66.502,38.343L-66.021,36.406C-64.833,31.615 -63.646,26.824 -62.387,22.055C-61.294,17.916 -64.345,14.371 -67.919,12.743C-69.452,12.045 -70.964,11.737 -72.614,12.135C-74.123,12.499 -75.491,13.268 -76.84,14.017C-80.34,15.962 -83.638,18.363 -86.728,20.912C-87.967,21.935 -89.154,23.191 -90.667,24.177C-90.74,24.224 -90.832,24.241 -90.918,24.229C-91.054,24.209 -91.155,24.083 -91.19,23.949C-91.8,21.618 -89.79,19.295 -90.688,16.901C-91.344,15.147 -92.729,13.953 -94.305,13.053C-95.883,12.151 -97.72,11.021 -99.45,10.466C-99.822,10.347 -100.209,10.259 -100.6,10.26C-102.215,10.261 -102.076,11.118 -102.478,12.312C-103.392,15.027 -103.641,16.513 -104.354,17.449C-104.354,17.449 -117.063,36.13 -143.756,47.211C-153.124,51.101 -162.894,50.656 -171.237,43.174C-173.959,40.733 -175.969,37.515 -177.073,34.016C-180.59,22.879 -173.892,11.264 -166.885,3.044C-160.613,-4.312 -151.671,-10.509 -141.764,-10.808C-140.503,-10.847 -135.676,-10.486 -135.676,-8.429C-135.676,-5.152 -135.232,-1.49 -132.597,0.756C-128.389,4.34 -122.284,4.998 -117.79,1.56C-114.74,-0.772 -114.381,-5.447 -115.211,-8.299C-116.55,-12.899 -120.634,-17.137 -124.314,-19.832C-136.254,-28.574 -154.67,-24.398 -165.654,-16.007C-175.079,-8.806 -180.993,-2.525 -186.616,8.145C-192.972,20.208 -193.878,36.64 -185.34,47.827C-178.302,57.05 -166.631,61.874 -155.218,60.767C-144.165,59.695 -133.396,54.908 -124.104,48.945C-118.681,45.465 -114.299,40.864 -109.19,37.09C-108.332,37.003 -108.465,37.983 -108.729,38.72C-109.469,40.796 -110.496,42.753 -111.26,44.821C-111.996,46.811 -111.693,48.6 -110.582,50.392C-108.961,53.005 -104.991,56.832 -101.772,54.913C-99.667,53.657 -98.081,51.33 -96.414,49.559L-82.459,33.65C-81.867,32.979 -81.223,32.349 -80.492,31.835C-79.956,31.458 -79.402,31.107 -78.79,30.872C-78.707,30.841 -78.619,30.811 -78.531,30.826C-78.399,30.851 -78.297,30.977 -78.276,31.112C-78.09,32.379 -78.827,35.309 -79.114,36.77C-79.904,40.798 -80.631,45.094 -80.629,49.21C-80.625,55.012 -76.73,59.923 -70.971,60.936C-68.664,61.34 -66.053,60.54 -63.316,58.087C-59.436,54.608 -54.266,47.017 -54.266,47.017C-53.692,46.191 -50.714,41.755 -49.566,41.966C-49.566,41.966 -47.78,53.713 -35.608,56.641C-28.359,58.384 -21.549,55.89 -15.229,52.072C-9.883,48.842 -4.888,44.664 -0.276,41.303C0.678,40.608 2.063,39.59 2.421,38.357C2.999,36.365 1.3,34.551 0,33.3" style="fill:white;fill-rule:nonzero;"/>
            </g>
            <g transform="matrix(1.00082,0,0,2.93631,1840.64,214.318)">
                <path d="M0,-42.159C-1.058,-42.368 -2.15,-42.478 -3.27,-42.478C-12.552,-42.478 -20.077,-34.954 -20.077,-25.672C-20.077,-19.446 -16.692,-14.013 -11.663,-11.108C-11.596,-11.073 -11.529,-11.036 -11.466,-10.996C-10.501,-10.405 -9.857,-9.342 -9.857,-8.128C-9.857,-7.805 -9.903,-7.494 -9.988,-7.199L-10.009,-7.126L-11.822,-0.779L-11.826,-0.764C-11.85,-0.688 -11.861,-0.608 -11.861,-0.524C-11.861,-0.059 -11.484,0.319 -11.02,0.319C-10.847,0.319 -10.686,0.267 -10.553,0.177L-10.533,0.163L6.021,-11.666C10.551,-14.677 13.537,-19.825 13.537,-25.672C13.537,-33.835 7.717,-40.638 0,-42.159" style="fill:white;fill-rule:nonzero;"/>
            </g>
            <g transform="matrix(1.00082,0,0,2.93631,-16.7748,-11606.6)">
                <text x="98.814px" y="4095.18px" style="font-family:'UniSansRegular', 'Uni Sans';font-size:27.494px;fill:white;">*<tspan x="109.674px 126.693px " y="4095.18px 4095.18px ">Ap</tspan>lica par<tspan x="221.054px " y="4095.18px ">a</tspan> Plan Mó<tspan x="332.378px " y="4095.18px ">v</tspan>il<tspan x="357.288px 363.061px 379.558px 387.916px " y="4095.18px 4095.18px 4095.18px 4095.18px "> Pro</tspan>mocional. <tspan x="514.335px 531.354px " y="4095.18px 4095.18px ">Ap</tspan>lican r<tspan x="612.38px " y="4095.18px ">e</tspan>stricciones. Re<tspan x="786.666px " y="4095.18px ">v</tspan>isa términos y condiciones en <tspan x="1131.55px 1151.16px 1170.76px 1189.4px 1195.29px " y="4095.18px 4095.18px 4095.18px 4095.18px 4095.18px ">www.c</tspan>nt.com.ec</text>
            </g>
        </g>
    </g>
</svg>
